PathFileType	4	(X/Y/Z)	/home/abdul/Desktop/myosuite/custom_workspace/IK/output/S4_12_2.trc
DataRate	CameraRate	NumFrames	NumMarkers	Units	OrigDataRate	OrigDataStartFrame	OrigNumFrames
200.0	200.0	22	3	mm	200.0	923	1054
Frame#	Time	V_Shoulder			V_Elbow			V_Wrist		
		X1	Y1	Z1	X2	Y2	Z2	X3	Y3	Z3

923	4.61	-99.0835843186457	579.9307662964835	271.62502703287896	-197.89000640954197	421.337029657348	34.448630086266505	-218.19920559654292	198.69621717599045	28.121779042544233
924	4.615	-99.09195180369626	580.0818825550094	271.6243328673736	-197.87456029724842	421.33743934130644	34.50885436389163	-218.20817066156388	198.69780445532422	28.146739639498335
925	4.62	-99.0987214072466	580.2318031942154	271.6235036825395	-197.85821765193242	421.3366155617486	34.56852302301594	-218.21633424229378	198.6982163084284	28.169759273108475
926	4.625	-99.10393938673742	580.3804549027933	271.6225355604917	-197.84094653004783	421.33460105645497	34.627564475020115	-218.2236360966001	198.69752230006392	28.190824603605684
927	4.63	-99.10765211593402	580.5277685655632	271.62142515437483	-197.82272113740794	421.3314415568061	34.685911662785955	-218.23002239548453	198.69579315541156	28.209931736855353
928	4.635	-99.10990609820499	580.6736792396555	271.620169625965	-197.80352167679405	421.32718546490617	34.74350200648684	-218.23544561314216	198.69310043018828	28.22708564635457
929	4.64	-99.11074797988924	580.8181261195083	271.6187665843502	-197.78333417932419	421.32188353676645	34.80027733498876	-218.23986439918565	198.68951619358108	28.242299593892895
930	4.645	-99.11022456340504	580.9610524913014	271.61721402604036	-197.76215032095809	421.31558857240327	34.856183804060635	-218.2432434344795	198.68511272456504	28.25559455108734
931	4.65	-99.1083828197623	581.1024056774542	271.61551027684044	-197.7399672255027	421.3083551136424	34.91117180258704	-218.24555327201128	198.67996222209638	28.26699862389396
932	4.655	-99.10526990014587	581.2421369718371	271.61365393579916	-197.71678725546684	421.30023915035554	34.965195847965994	-218.2467701641998	198.6741365296014	28.276546482087873
933	4.66	-99.10093314624936	581.3802015663435	271.61164382152583	-197.69261779209296	421.29129783579106	35.0182144718599	-218.24687587801287	198.667706874109	28.28427879559147
934	4.665	-99.09542009904919	581.5165584694801	271.6094789211448	-197.66747100586952	421.28158921159616	35.07019009744913	-218.24585749923446	198.6607436203044	28.290241679417285
935	4.67	-99.08877850572229	581.651170417631	271.60715834213323	-197.64136361879974	421.27117194306254	35.12108890931508	-218.24370722718535	198.65331603971458	28.294486148878335
936	4.675	-99.08105632442607	581.7840037796559	271.60468126726647	-197.61431665967098	421.2601050650662	35.17088071705359	-218.2404221611635	198.64549209516665	28.2970675866045
937	4.68	-99.0723017266745	581.9150284554689	271.60204691286975	-197.5863552135346	421.2484477391051	35.21953881369022	-218.23600407982846	198.63733824059787	28.298045222789863
938	4.685	-99.06256309706261	582.044217769247	271.5992544905487	-197.55750816656973	421.2362590217814	35.26703982993595	-218.23045921471214	198.62891923623224	28.297481629982673
939	4.69	-99.0518890301101	582.1715483579035	271.5963031725493	-197.52780794746388	421.2235976450124	35.3133635852867	-218.2237980189919	198.62029797907888	28.295442233616768
940	4.695	-99.04032832401474	582.2970000554491	271.5931920608707	-197.49729026640415	421.2105218081951	35.35849293693158	-218.21603493261574	198.6115353486509	28.29199483937226
941	4.7	-99.02792997112738	582.4205557738545	271.589920160228	-197.46599385272685	421.1970889824962	35.40241362739364	-218.20718814482174	198.60269006774786	28.287209178342994
942	4.705	-99.01474314498245	582.5422013810063	271.5864863549392	-197.43396019223155	421.183355727381	35.44511413178399	-218.197279355044	198.59381857809586	28.281156470879715
943	4.71	-99.0008171837406	582.6619255763359	271.582889389784	-197.40123326511718	421.1693775194448	35.486585505504344	-218.18633353314812	198.58497493058908	28.273909009871304
944	4.715	-98.98620156992395	582.7797197646779	271.5791278548566	-197.36785928545282	421.15520859356025	35.526821233185814	-218.17437867988787	198.5762106898332	28.265539764121293
